<svg xmlns="http://www.w3.org/2000/svg" width="300.00009" height="340.15103">
  <path fill="#ffe000" d="M139.77804 337.40402l-129.555996-74.818a20.504 20.504 0 0 1-10.2220003-17.722V95.287015a20.504 20.504 0 0 1 10.2220003-17.782L139.77804 2.7470151a20.504 20.504 0 0 1 20.504 0l129.496 74.8189999a20.504 20.504 0 0 1 10.222 17.782V244.86402a20.504 20.504 0 0 1-10.222 17.782l-129.496 74.758a20.504 20.504 0 0 1-20.504 0z"/>
  <path fill="#3c3c3c" d="M183.33304 120.83302c.92 0 1.667-1.163 1.667-2.083v-7.5c0-.92-.747-1.25-1.667-1.25h-57.5c-.92 0-1.666.33-1.666 1.25v6.25h-7.5c-.92 0-1.667.33-1.667 1.25v8.333c0 .92.747 2.084 1.667 2.084h7.5v5.833h-7.5c-.92 0-1.667.33-1.667 1.25v8.333c0 .92.747 2.084 1.667 2.084h7.5v5.416c0 .92.746 2.084 1.666 2.084h57.5c.92 0 1.667-1.164 1.667-2.084v-7.5c0-.92-.747-1.25-1.667-1.25h-7.5v-5.833h7.5c.92 0 1.667-1.163 1.667-2.083v-8.334c0-.92-.747-1.25-1.667-1.25h-7.5v-5zm-1.666-3.333h-15.834v-4.167h15.834zm-19.167 0h-15.833v-4.167h15.833zm-9.167 25.833h-15.833v-5h15.833zm9.167-9.166h-15.833v-5h15.833zm-9.167-8.334h-15.833v-5h15.833zm-25.833-12.5h15.833v4.167h-15.833zm-9.167 7.5h15.834v5h-15.834zm17.5 8.334h7.5v5h-15.833v-5zm-17.5 9.166h15.834v5h-15.834zm9.167 8.334h15.833v4.166h-15.833zm19.167 0h15.833v4.166h-15.833zm35 4.166h-15.834v-4.166h15.834zm-17.5-7.5h-7.5v-5h15.833v5zm17.5-9.166h-15.834v-5h15.834zm-9.167-8.334h-15.833v-5h15.833zM83.047044 184.00002c.405 0 .566.202.485.606l-6.75 27.085c-.122.445-.445.606-.809.606h-1.01c-.364 0-.647-.161-.769-.606l-7.397-24.538-7.439 24.538c-.12.445-.404.606-.768.606h-1.01c-.364 0-.688-.161-.809-.606l-6.75-27.085c-.082-.404.08-.606.484-.606h.93c.404 0 .647.202.728.606l5.983 24.62 7.357-24.62c.121-.404.364-.606.768-.606h1.01c.405 0 .647.202.769.606l7.357 24.62 5.983-24.62c.08-.404.323-.606.728-.606h.93zm19.444996 27.934c.04.161.08.363-.122.363h-1.293c-.445 0-.647-.404-.647-.97v-2.425c-1.252996 2.102-3.152996 3.598-6.103996 3.598h-1.86c-3.638 0-5.861-2.022-5.861-6.024 0-4.042 2.304-5.82 5.78-5.82h8.044996v-1.254c0-4.326-1.050996-5.579-4.931996-5.579h-.768c-2.142 0-3.598.364-5.013 1.092-.363.202-.727.283-.848-.04l-.445-.85c-.121-.242-.081-.444.323-.687 1.617-1.05 3.76-1.415 5.983-1.415h.768c5.012996 0 6.912996 2.304 6.912996 7.438v11.966c0 .202.04.445.08.607zm-8.327996-1.375c3.275 0 5.417-1.819 6.265996-4.487v-3.598h-7.963996c-2.506 0-3.88.97-3.88 4.002s1.374 4.083 3.88 4.083zm13.016996-25.953c0-.404.202-.606.606-.606h.768c.405 0 .607.202.607.606v27.085c0 .404-.202.606-.607.606h-.768c-.404 0-.606-.202-.606-.606zm6.832 0c0-.404.202-.606.606-.606h.768c.405 0 .607.202.607.606v27.085c0 .404-.202.606-.607.606h-.768c-.404 0-.606-.202-.606-.606zm15.766 7.317c4.204 0 7.155 2.547 7.155 7.358v5.78c0 4.73-2.951 7.439-7.155 7.439h-1.456c-2.991 0-4.649-1.254-5.498-3.275v10.551c0 .404-.202.606-.606.606h-.768c-.404 0-.606-.202-.606-.606v-27.085c0-.404.202-.606.606-.606h.768c.404 0 .606.202.606.606v2.264c.85-1.98 2.507-3.032 5.498-3.032zm5.174 13.3v-5.821c0-3.76-1.86-5.579-5.215-5.579h-1.698c-3.355 0-5.215 1.82-5.215 5.579v5.821c0 3.477 1.86 5.336 5.215 5.336h1.698c3.355 0 5.215-1.86 5.215-5.336zm21.304 6.71c.04.162.08.364-.121.364h-1.294c-.445 0-.647-.404-.647-.97v-2.425c-1.253 2.102-3.153 3.598-6.104 3.598h-1.86c-3.638 0-5.861-2.022-5.861-6.024 0-4.042 2.304-5.82 5.78-5.82h8.045v-1.254c0-4.326-1.05-5.579-4.932-5.579h-.768c-2.142 0-3.598.364-5.012 1.092-.364.202-.728.283-.85-.04l-.444-.85c-.121-.242-.08-.444.323-.687 1.617-1.05 3.76-1.415 5.983-1.415h.768c5.013 0 6.913 2.304 6.913 7.438v11.966c0 .202.04.445.08.607zm-8.328-1.374c3.275 0 5.417-1.819 6.266-4.487v-3.598h-7.964c-2.506 0-3.88.97-3.88 4.002s1.374 4.083 3.88 4.083zm21.951-18.636c4.204 0 7.155 2.547 7.155 7.358v5.78c0 4.73-2.95 7.439-7.155 7.439h-1.455c-2.992 0-4.65-1.254-5.498-3.275v10.551c0 .404-.202.606-.606.606h-.769c-.404 0-.606-.202-.606-.606v-27.085c0-.404.202-.606.606-.606h.769c.404 0 .606.202.606.606v2.264c.849-1.98 2.506-3.032 5.498-3.032zm5.174 13.3v-5.821c0-3.76-1.86-5.579-5.214-5.579h-1.698c-3.356 0-5.215 1.82-5.215 5.579v5.821c0 3.477 1.86 5.336 5.215 5.336h1.698c3.355 0 5.214-1.86 5.214-5.336zm14.23-13.3c3.476 0 7.034 2.587 7.034 7.317v2.547c0 .768-.526 1.253-1.334 1.253h-12.249v2.385c0 3.275 1.86 5.134 5.215 5.134h1.334c2.83 0 3.598-1.172 4.85-2.668.284-.323.446-.404.85-.121l.525.364c.405.283.364.525.122.849-1.456 1.778-2.91 3.517-6.347 3.517h-1.334c-4.245 0-7.277-2.668-7.277-7.196v-6.023c0-4.811 3.032-7.358 7.277-7.358zm4.972 9.298v-1.82c0-3.759-2.142-5.578-4.972-5.578h-1.334c-3.355 0-5.215 1.82-5.215 5.538v1.86zm17.545-7.357c-.162.363-.445.404-.768.283-.566-.202-1.213-.324-2.062-.324h-.485c-3.355 0-5.296 2.102-5.943 3.194v14.674c0 .404-.202.606-.606.606h-.768c-.404 0-.607-.202-.607-.606v-19c0-.404.203-.606.607-.606h.768c.404 0 .606.202.606.606v2.547c1.577-2.304 3.881-3.315 6.59-3.315.889 0 1.819.122 2.627.324.364.161.485.404.364.768zm10.43 7.276c4.163.526 7.6 1.01 7.6 5.538 0 4.205-3.194 5.822-6.873 5.822h-1.617c-3.72 0-6.104-1.82-6.71-5.013-.082-.364.12-.607.525-.607h1.01c.324 0 .526.203.566.566.526 2.183 1.94 3.113 4.609 3.113h1.617c2.749 0 4.891-.849 4.891-3.88 0-3.031-2.627-3.356-5.619-3.72-4.366-.485-7.276-1.212-7.276-5.619 0-3.84 2.587-5.376 6.589-5.376h1.172c3.76 0 6.307 1.698 6.468 5.376 0 .404-.121.647-.566.647h-.889c-.364 0-.606-.243-.606-.647-.202-2.425-1.698-3.557-4.488-3.557h-1.01c-2.91 0-4.69.849-4.69 3.598 0 2.91 2.103 3.395 5.296 3.76zm27.003-2.95c.404 0 .566.201.566.606v.848c0 .405-.162.607-.606.607h-6.266v6.791c0 .404-.202.607-.607.607h-.849c-.404 0-.606-.203-.606-.607v-6.791h-6.387c-.404 0-.606-.202-.606-.607v-.848c0-.405.202-.607.606-.607h6.387v-6.71c0-.405.202-.607.606-.607h.85c.404 0 .606.202.606.607v6.71h6.306z"/>
</svg>
